<svg version="1.1" id="Layer_1" xmlns="http://www.w3.org/2000/svg" xmlns:xlink="http://www.w3.org/1999/xlink" x="0px" y="0px"
	 width="100%" viewBox="0 0 1024 1024" enable-background="new 0 0 1024 1024" xml:space="preserve">
<path fill="#D4AF37" opacity="1.000000" stroke="none" 
	d="
M862.979919,358.952393 
	C864.252075,367.232697 869.149597,373.993408 872.650757,381.285828 
	C883.439026,403.756073 891.999084,427.009888 896.707153,451.450928 
	C897.824463,457.251648 900.509827,460.206146 904.597107,463.255005 
	C924.061829,477.774597 933.325256,498.083801 937.319763,521.350342 
	C940.130859,537.723938 940.053711,554.151672 938.256714,570.603943 
	C937.801880,574.768494 936.512634,578.717651 934.493774,582.429260 
	C932.866211,585.421509 930.354980,587.156799 927.146545,587.973938 
	C921.260254,589.473022 918.976501,587.086426 920.614258,581.184143 
	C921.148499,579.258667 921.885742,577.369446 922.214966,575.410706 
	C923.285034,569.043640 923.390137,563.092590 918.266052,557.815552 
	C910.932617,550.263306 906.038330,540.788330 899.555664,532.536621 
	C898.462524,531.145203 897.855286,529.197449 895.394958,528.923523 
	C893.598389,530.560669 893.684448,532.983093 893.365295,535.177612 
	C889.436890,562.184265 886.486694,589.564819 875.048035,614.643494 
	C870.010376,625.688293 871.589478,634.888123 874.947754,645.566650 
	C880.568115,663.438354 886.109070,681.546387 885.291809,700.688354 
	C884.870239,710.563599 879.479065,717.170044 870.519470,720.764282 
	C862.176086,724.111328 854.706909,721.959656 848.582764,715.723755 
	C842.634583,709.667053 841.829651,702.250488 844.290649,694.383240 
	C846.486450,687.363953 851.241272,683.209045 858.568909,682.077698 
	C865.325989,681.034363 870.901672,687.287231 869.136719,693.944214 
	C868.365295,696.853882 866.281616,696.125305 864.320862,695.675781 
	C861.035706,694.922546 858.623962,696.203186 857.503235,699.209167 
	C856.472534,701.973755 857.495728,704.436157 859.839172,706.289124 
	C861.599976,707.681335 863.445312,707.852539 865.417725,706.772339 
	C869.586609,704.489197 872.034851,701.097351 871.518372,696.228821 
	C870.109558,682.947144 867.049622,670.004395 863.108154,657.262817 
	C862.675537,655.864441 862.345520,654.116882 860.522522,653.934326 
	C858.680359,653.749878 858.046631,655.396301 857.394348,656.718689 
	C841.414978,689.109497 818.094788,716.023254 793.576660,742.007141 
	C782.413696,753.837524 777.696472,768.311096 775.320618,783.878479 
	C772.983887,799.189575 774.169800,814.813965 771.281799,830.073059 
	C769.491028,839.534546 766.201721,848.111145 756.588928,852.426086 
	C748.728882,855.954163 740.994324,855.236328 734.566589,849.694397 
	C728.136902,844.150513 725.018066,836.853943 727.897217,828.150513 
	C730.612183,819.943665 736.518860,815.398193 744.907654,813.831360 
	C749.246765,813.020874 752.952148,815.388489 757.302429,816.429871 
	C759.831116,811.464233 759.297424,806.054871 759.259277,801.196228 
	C759.132812,785.116638 765.402588,770.697754 769.387878,755.631836 
	C773.093689,741.622437 781.096619,730.877747 791.236511,721.142334 
	C802.934937,709.910461 812.812073,697.106201 822.419250,684.087341 
	C824.348755,681.472656 824.529968,679.101501 823.806030,675.811279 
	C819.122498,654.526306 807.947144,635.972046 799.302185,616.359985 
	C798.340698,614.178772 796.275452,611.197449 794.547791,614.948059 
	C787.683411,629.849731 776.987793,643.061340 774.291565,659.810913 
	C771.990906,674.102783 769.773804,688.409119 767.667236,702.730835 
	C765.169189,719.714172 761.740601,736.464294 755.941284,752.667847 
	C755.623413,753.556030 755.580444,754.542542 755.329651,755.922485 
	C760.499756,755.167419 763.067993,750.407166 767.792053,749.181519 
	C768.351013,753.946838 765.564880,757.675781 764.887573,761.835999 
	C763.733154,768.926147 759.612549,773.408142 753.822266,777.356567 
	C735.915344,789.567322 718.118286,801.930664 698.308594,810.945068 
	C694.151733,812.836609 691.829590,815.650879 690.298035,819.830994 
	C682.916626,839.976807 673.483337,858.999512 659.215454,875.314880 
	C654.001526,881.276978 648.221741,886.481567 640.952148,889.794739 
	C638.999573,890.684570 636.928833,891.532715 634.830383,891.839478 
	C630.422607,892.483826 628.621399,889.923157 630.420715,885.810181 
	C631.220703,883.981567 632.190125,882.223511 633.142029,880.465576 
	C635.406372,876.284302 635.778809,872.060547 634.085022,867.518921 
	C632.181763,862.415466 633.297546,859.201599 637.134827,857.440796 
	C641.757263,855.319824 646.366760,856.705872 649.021729,860.996643 
	C649.272278,861.401611 649.631653,861.739441 650.164368,862.375671 
	C652.678040,861.162659 654.176697,858.977783 655.604370,856.798950 
	C668.005432,837.873779 677.753052,817.745483 683.722229,795.824036 
	C688.745239,777.377197 692.414978,758.557739 698.848694,740.499268 
	C700.412048,736.110962 702.114685,731.772339 703.745483,727.407959 
	C704.193054,726.210144 705.148987,725.027649 703.509033,723.284546 
	C698.791687,726.334961 694.033325,729.543457 689.149170,732.547424 
	C667.448425,745.894470 644.087341,755.613525 619.842957,763.085266 
	C608.334961,766.631836 598.697083,772.619324 590.089355,780.723267 
	C576.735901,793.295227 564.536743,807.010132 551.440369,819.824219 
	C537.512329,833.451965 524.840637,848.359985 509.896057,860.939880 
	C492.549164,875.541992 475.352600,890.396484 452.288025,895.613281 
	C442.701996,897.781555 433.174255,897.933472 423.548676,896.350647 
	C419.834106,895.739807 415.541962,895.037048 415.936951,890.233704 
	C416.333801,885.407104 420.731140,884.734863 424.675690,884.751648 
	C434.079590,884.791809 443.233826,883.450439 452.692505,880.229370 
	C454.158051,879.640137 455.086365,879.312988 456.014648,878.985779 
	C458.680298,878.179749 461.534241,877.736572 463.335693,875.365295 
	C463.278381,873.394836 461.629669,872.859680 460.628632,871.830383 
	C458.604706,869.749390 456.331970,867.736389 458.977722,864.629089 
	C461.232025,861.981445 465.801392,861.630127 468.460541,863.841614 
	C468.588135,863.947815 468.682465,864.098572 468.818512,864.189331 
	C470.910797,865.585022 471.229858,869.724854 474.520569,868.842773 
	C476.768005,868.240417 478.762146,866.259094 480.588104,864.586975 
	C495.035004,851.357422 511.598328,840.297363 522.673523,823.601318 
	C526.535217,817.779785 530.358093,811.944519 533.131958,805.138062 
	C530.081116,803.615234 527.187561,802.170959 524.044861,800.602234 
	C522.144287,802.644165 520.380493,804.840759 518.303406,806.684631 
	C516.295532,808.466919 513.754822,809.145203 511.466644,807.259460 
	C508.963959,805.196899 509.872833,802.781982 511.512939,800.618530 
	C515.133667,795.842285 518.767273,791.074036 522.491394,786.378601 
	C525.054993,783.146423 527.443848,783.553101 529.487122,787.018555 
	C530.248169,788.309326 530.912537,789.694153 531.872864,790.821472 
	C533.204041,792.384583 534.566040,794.862976 537.078796,792.769836 
	C539.127686,791.062988 539.214783,788.733276 537.664551,786.477783 
	C535.554749,783.407959 532.703186,781.057800 529.745972,778.918945 
	C527.720337,777.453918 526.363953,775.807373 526.216553,772.933289 
	C506.423889,771.725220 487.166412,768.245300 468.127045,763.426819 
	C457.116089,760.640076 446.652649,756.279358 435.954498,752.593140 
	C434.052979,751.937988 432.325409,751.111877 430.360413,752.679138 
	C413.454834,766.163025 396.345886,779.348633 375.412720,787.927185 
	C391.453583,797.155701 407.649292,804.046448 423.963806,810.649719 
	C430.436401,813.269470 437.162018,815.257812 443.718292,817.680176 
	C446.162354,818.583191 447.974457,818.259399 450.080994,816.608948 
	C459.644257,809.116516 468.971710,801.288208 479.843384,795.614319 
	C484.745544,793.055908 489.779297,790.921021 495.074982,789.401245 
	C496.497681,788.992981 498.014587,788.816345 499.498932,788.739258 
	C502.766022,788.569580 505.751923,789.522583 506.568726,792.956909 
	C507.382263,796.377563 504.271179,797.457092 501.897552,798.481873 
	C488.404419,804.307617 477.237976,813.572571 465.914978,822.613098 
	C465.565948,822.891785 465.396545,823.395325 464.887360,824.197327 
	C479.614044,828.824646 494.786499,830.313477 509.682739,833.391113 
	C506.531799,841.163025 498.601227,846.154602 491.177246,845.290527 
	C478.890656,843.860352 467.157440,839.931641 455.170898,837.153442 
	C452.109344,836.443970 449.952545,836.894165 447.491241,838.951904 
	C436.536713,848.109924 424.182892,854.320618 409.773438,855.920227 
	C407.273224,856.197815 404.772156,856.570862 402.325836,855.966919 
	C399.940735,855.378113 397.956757,853.940063 397.608307,851.357422 
	C397.214172,848.436523 399.776917,847.777466 401.766663,847.227417 
	C411.148895,844.634094 420.054810,841.057251 428.032196,835.371704 
	C429.778259,834.127258 431.769653,833.171082 432.814972,830.704895 
	C427.877167,827.520691 422.077850,826.509460 416.694794,824.665955 
	C395.953735,817.562744 376.590302,807.557373 357.391052,797.187805 
	C354.723541,795.747131 352.414581,795.129150 349.400665,795.954590 
	C340.092407,798.503784 330.526428,800.075500 321.397308,803.325806 
	C316.013367,805.242737 311.021942,807.850220 306.624146,811.534729 
	C304.096619,813.652283 302.682495,816.154358 303.523132,820.391724 
	C304.436005,819.244812 304.927185,818.820129 305.176208,818.283081 
	C306.599915,815.212708 308.644623,813.549316 312.291565,814.447144 
	C315.863770,815.326599 317.597839,817.684143 318.177094,821.073242 
	C319.233612,827.254944 315.745972,832.932556 309.601471,835.172729 
	C302.028137,837.933838 294.445892,835.607239 290.867310,829.157471 
	C287.477112,823.047424 287.829865,816.613342 290.315521,810.341187 
	C293.212494,803.031250 298.802307,798.059509 305.578491,794.445190 
	C317.458252,788.108765 330.282501,784.587402 343.490814,782.456360 
	C367.548370,778.574951 388.196442,767.627747 406.701813,752.218201 
	C409.586212,749.816345 413.222321,748.184998 415.458557,744.211914 
	C409.047760,740.738037 402.785858,737.391846 396.570557,733.961365 
	C391.904266,731.385803 387.220978,728.825623 382.695526,726.016602 
	C380.220764,724.480530 378.602966,724.686890 376.088135,726.408569 
	C363.201233,735.230713 350.966705,745.186523 336.132446,750.806702 
	C332.628113,752.134338 328.979431,753.081055 324.509247,754.481140 
	C331.177307,759.541626 337.530304,763.279846 344.617340,765.811462 
	C347.880920,766.977295 350.232544,765.610352 351.974182,763.163635 
	C354.303650,759.891052 356.977997,759.820862 360.197357,761.539856 
	C361.661133,762.321472 363.197906,762.922974 364.933502,762.973145 
	C368.469391,763.075256 370.789459,761.399597 371.461426,758.048645 
	C372.228729,754.222534 369.844604,752.048035 366.533539,751.043091 
	C362.942505,749.953186 362.105865,752.973938 360.925110,755.330566 
	C360.092041,756.993164 360.101288,759.640564 357.164673,759.043457 
	C354.575897,758.517029 353.238464,756.619812 352.805878,754.140747 
	C352.022064,749.648499 353.835114,746.388794 357.742157,744.165833 
	C366.695648,739.071533 379.251160,744.440552 381.654846,754.408569 
	C383.328125,761.347656 380.727051,767.238953 374.005310,769.837280 
	C361.730438,774.582153 349.200897,778.585266 336.050293,780.190186 
	C334.073273,780.431458 332.141205,780.430786 330.268829,779.276917 
	C319.776306,772.810730 308.925110,766.837158 300.020172,758.142700 
	C296.132843,754.347351 291.276886,754.603882 286.535980,753.984924 
	C276.961487,752.735046 267.401367,751.399109 257.716125,751.327393 
	C254.671417,751.304749 251.721313,751.782288 248.891235,752.790527 
	C244.428421,754.380432 243.443436,756.848145 245.102936,761.690186 
	C245.789139,762.084595 246.449753,761.884705 246.929398,761.403198 
	C249.170990,759.153198 251.630951,757.311157 254.839828,759.259583 
	C257.669556,760.977722 259.515320,763.587524 259.484680,767.069214 
	C259.450287,770.978760 257.453766,773.922607 253.880692,775.168030 
	C247.640594,777.343201 241.409576,777.504944 235.969269,772.895447 
	C230.169830,767.981506 228.444000,761.623352 230.192780,754.410461 
	C232.788483,743.704468 242.316895,737.108276 255.684296,736.737854 
	C262.970917,736.535950 270.267761,736.701904 278.220337,736.701904 
	C276.681122,731.592102 273.534637,727.862488 270.658051,724.226074 
	C257.674652,707.812988 247.224808,689.831360 237.292892,671.512268 
	C226.900528,652.343933 216.075348,633.410950 207.286331,613.396240 
	C200.974686,599.023071 195.767654,584.289062 191.537949,569.210754 
	C190.251785,564.625732 187.805710,561.285034 184.323318,558.212280 
	C171.675705,547.052063 159.910583,535.169373 151.218552,520.425964 
	C141.218460,503.463715 137.047714,484.981995 135.775467,465.702057 
	C135.162750,456.416718 135.292389,447.051697 137.815308,437.927979 
	C138.885986,434.056061 140.835022,430.886902 144.658768,429.209259 
	C146.693542,428.316467 148.847046,427.751709 150.889252,429.024994 
	C153.228836,430.483734 152.567886,432.870544 152.181351,434.930450 
	C151.041580,441.004150 150.765305,447.147308 150.373062,453.287415 
	C150.177505,456.348907 151.286133,458.864594 153.493439,460.867676 
	C162.869034,469.375732 172.280884,477.843811 181.684875,486.320526 
	C182.442322,487.003296 183.286575,487.506683 184.894272,487.194489 
	C186.426758,483.501892 186.405670,479.289795 186.547592,475.273499 
	C187.238754,455.713043 190.722717,436.609192 195.703934,417.764648 
	C196.696671,414.008911 195.884323,411.643402 193.408279,408.889160 
	C179.023499,392.887970 168.465271,374.796265 164.168457,353.456879 
	C161.271790,339.070984 167.507828,327.731720 180.100525,324.272430 
	C189.393814,321.719513 199.611252,325.963501 203.567291,334.019775 
	C208.397797,343.856842 206.271912,352.981262 197.706009,359.187714 
	C194.486115,361.520599 190.985168,363.105591 186.984467,361.848724 
	C184.319275,361.011444 182.582184,356.324615 182.079620,349.957520 
	C182.947250,348.784454 184.186172,349.273926 185.300568,349.260468 
	C188.523026,349.221497 190.774017,347.766663 191.546982,344.600281 
	C192.210022,341.884338 190.640854,340.146118 188.377335,339.013763 
	C185.314209,337.481445 182.588943,337.965332 180.299179,340.604187 
	C177.442657,343.896179 177.739410,347.938782 178.519958,351.577545 
	C181.726242,366.524628 188.050064,379.945770 199.167999,390.776215 
	C199.504517,391.104095 200.019836,391.248444 200.675018,391.597168 
	C204.207962,388.577454 204.551407,384.002747 205.941803,380.105530 
	C213.533493,358.826019 224.054977,339.023254 235.214645,319.457916 
	C243.644791,304.677979 251.932510,289.866486 262.954254,276.805969 
	C265.275513,274.055328 265.601471,270.906799 265.728760,267.485291 
	C266.693512,241.556168 271.050842,216.507462 285.276703,194.096283 
	C288.239044,189.429474 291.460938,184.984879 295.910004,181.606583 
	C298.195038,179.871475 300.704712,178.485123 303.714081,178.769669 
	C306.727570,179.054596 308.942871,181.057159 307.519745,183.764099 
	C299.228333,199.535202 304.711395,214.470779 310.515411,228.983337 
	C321.645599,256.813782 326.507446,285.549286 325.368134,315.405457 
	C325.311218,316.896881 325.445953,318.398651 325.558044,319.890625 
	C325.578644,320.164856 325.920959,320.414917 326.124725,320.689545 
	C327.532532,321.217590 328.317780,320.164062 329.075836,319.374054 
	C344.070648,303.746124 358.978729,288.029114 375.895813,274.404541 
	C378.686462,272.157013 379.692169,269.026489 380.391388,265.726776 
	C385.706207,240.646011 391.050446,215.574783 402.115662,192.192749 
	C402.552521,191.269577 402.812134,190.315674 401.923401,188.231339 
	C386.226379,194.096939 372.715973,203.758850 359.027924,213.021530 
	C345.236115,222.354431 332.657227,233.224640 320.028107,245.516174 
	C317.805481,239.721848 315.786346,234.689728 313.967865,229.586090 
	C313.366425,227.898010 314.800232,226.884109 315.969513,225.904556 
	C345.383270,201.263931 377.186737,180.416077 412.584534,165.348465 
	C416.347260,163.746811 418.777985,161.400375 420.889221,157.962906 
	C436.284271,132.896988 454.113495,110.015106 479.735413,94.411430 
	C488.917389,88.819641 498.688416,84.691902 509.472839,83.370415 
	C510.784058,83.209747 512.145691,83.023209 513.433960,83.204201 
	C516.095459,83.578133 519.182434,84.036667 519.653259,87.227242 
	C520.171936,90.741547 516.899048,91.556534 514.455933,92.190170 
	C488.700684,98.870049 469.727814,114.874542 453.850952,135.451355 
	C442.942841,149.588562 432.676208,164.117050 423.829834,179.638718 
	C422.033936,182.789749 420.482697,185.985596 419.206024,191.066437 
	C423.789703,185.775345 428.110321,183.945831 433.525360,185.769684 
	C439.100220,187.647385 441.060242,191.849258 438.702881,197.284531 
	C438.060577,198.765503 438.009918,199.918289 438.811096,201.467072 
	C441.946289,207.527710 439.824158,212.743698 433.378632,215.396576 
	C428.315002,217.480682 420.690216,215.015472 418.441254,210.567108 
	C417.251312,208.213470 417.446198,207.122116 419.757629,203.244690 
	C421.298615,202.632629 422.253479,203.737885 423.254791,204.546326 
	C425.350861,206.238739 427.511932,207.532272 429.805298,205.041763 
	C431.797363,202.878448 432.390533,200.396332 430.545349,197.775543 
	C428.801575,195.298813 426.502930,193.107727 423.492645,194.915222 
	C421.157104,196.317596 419.745667,195.814789 417.807587,193.536819 
	C406.914185,214.140884 401.701843,235.765350 397.125671,258.470978 
	C403.322357,256.512024 407.708588,253.154648 412.442322,250.566025 
	C430.794556,240.530151 450.175079,233.017960 470.160309,227.104721 
	C476.311279,225.284790 481.458038,222.326767 486.018951,218.089050 
	C496.146545,208.679047 505.952118,198.905350 516.349060,189.805634 
	C543.421631,166.110855 569.412109,141.156631 597.684082,118.862350 
	C611.700562,107.809456 627.416504,99.735779 645.377075,97.220406 
	C654.308411,95.969566 663.337952,95.953568 672.068054,98.946999 
	C674.572083,99.805595 677.396973,100.511780 677.257996,104.064041 
	C677.122375,107.529739 674.538818,109.097916 671.793884,109.737595 
	C668.928894,110.405212 665.852539,110.214645 662.865723,110.301590 
	C652.349487,110.607674 641.925781,111.466560 631.977966,115.273750 
	C630.909058,115.682846 629.893372,116.230988 628.889954,116.697456 
	C628.507568,119.335457 630.260742,120.825668 631.399414,122.602669 
	C632.699280,124.631126 635.126526,126.977295 632.116150,129.017105 
	C629.484314,130.800415 626.305725,132.581421 622.918335,130.000015 
	C620.559448,128.202454 620.059631,123.382454 616.044739,124.608627 
	C613.340576,125.434464 611.072083,127.859085 608.752563,129.745422 
	C585.223694,148.880753 564.122498,170.222321 548.229004,196.315109 
	C546.547729,199.075302 545.803040,201.188217 548.994324,203.452911 
	C553.010742,206.303162 554.592773,210.787048 555.898865,215.309402 
	C556.659546,217.943314 557.883606,219.509094 561.013611,219.747375 
	C591.839355,222.093933 621.336670,229.793823 649.556152,242.342728 
	C652.652893,243.719818 654.648193,243.201706 657.156067,241.192398 
	C672.501404,228.897644 687.893250,216.640747 705.479614,207.563568 
	C720.468628,199.827026 736.689514,196.294373 753.172119,193.633362 
	C762.019226,192.205048 770.978760,191.296417 779.252869,187.331390 
	C784.195312,184.962906 788.355713,181.834717 791.369324,177.242401 
	C793.759827,173.599686 796.643494,170.965637 801.292603,173.284073 
	C804.813110,175.039658 806.286987,181.037796 804.503296,185.279922 
	C803.171326,188.447662 800.793274,190.745178 798.304626,193.000595 
	C786.960876,203.281189 772.926086,206.932663 758.344482,208.070984 
	C726.757568,210.536819 700.252014,223.974731 676.684692,244.237579 
	C674.072205,246.483688 670.744324,247.989395 669.016846,251.096390 
	C669.129456,252.845581 670.441895,253.428391 671.560974,254.058517 
	C686.557861,262.502899 700.622253,272.303864 713.776489,283.379364 
	C716.194946,285.415649 717.699402,284.804230 719.739807,283.131409 
	C734.941223,270.668610 752.279053,262.572113 771.251526,257.618896 
	C788.202087,253.193542 805.495972,253.030029 822.800537,252.700470 
	C829.890869,252.565445 836.687927,251.339767 842.973999,247.868195 
	C845.997131,246.198639 848.248779,243.826294 849.733582,240.733582 
	C850.669800,238.783463 851.058350,236.909073 848.525085,235.788605 
	C848.196838,236.007767 847.754211,236.138962 847.700500,236.363297 
	C846.311768,242.162491 843.445618,244.916229 839.424988,244.258514 
	C835.824219,243.669479 832.474304,237.255234 833.232971,232.402466 
	C834.423767,224.785553 840.860779,219.374466 848.622009,219.466125 
	C856.693359,219.561462 863.122803,225.316376 864.302612,233.501434 
	C866.415833,248.162109 856.664246,261.208588 840.149536,265.268921 
	C828.256653,268.192902 816.013123,267.716156 803.884827,268.284912 
	C780.771484,269.368774 758.676392,274.158081 738.869141,286.786011 
	C735.565796,288.892029 732.189880,291.121155 729.894653,294.435577 
	C730.906067,297.553802 733.532959,298.515503 735.958679,299.442657 
	C748.090088,304.079681 760.285889,308.548248 772.429871,313.152863 
	C775.179321,314.195374 776.526489,313.095154 777.240906,310.589050 
	C779.203064,303.706604 781.553833,296.959229 783.882812,290.194153 
	C785.325073,286.005005 782.765747,282.220215 779.259094,279.458801 
	C777.989990,278.459442 776.054504,278.377472 775.310913,276.641479 
	C779.943481,272.901917 785.263123,272.880127 790.211487,276.261047 
	C794.760437,279.369080 796.651184,284.835571 801.116577,288.134033 
	C801.019836,281.360565 795.180420,277.524353 792.960571,271.939606 
	C798.869141,267.699463 809.928528,269.098022 813.978821,274.422272 
	C830.220764,295.772919 842.096130,319.638885 853.804810,343.593567 
	C856.359253,348.819489 858.778381,354.091522 862.724670,358.825439 
	C863.000488,358.987549 862.979919,358.952393 862.979919,358.952393 
M838.017761,555.031738 
	C838.017761,555.031738 838.120972,555.157349 838.260620,555.897217 
	C838.516479,557.027466 838.600159,558.232544 839.054199,559.276611 
	C845.296936,573.630432 851.568848,587.971863 857.902649,602.285706 
	C858.613220,603.891418 859.334290,605.719604 861.790955,606.062744 
	C862.173401,605.432861 862.712585,604.796204 862.983826,604.060669 
	C868.004517,590.448486 871.533142,576.476501 873.945496,562.149963 
	C874.588989,558.328247 870.273682,558.119385 870.734009,555.067383 
	C872.163330,545.589966 867.541565,537.622925 864.216492,529.317383 
	C859.341736,517.141113 861.135193,505.541931 867.395447,494.323181 
	C869.530090,490.497681 874.712769,487.553375 873.780273,483.127258 
	C872.918579,479.036774 869.353882,475.426239 866.674133,471.832153 
	C863.692505,467.833221 860.445679,464.021637 857.158264,460.265015 
	C855.214294,458.043488 852.882263,457.652069 850.744446,460.114777 
	C848.421936,462.790131 846.789856,465.857391 849.409058,469.065430 
	C851.419128,471.527344 854.020508,471.303925 856.421021,469.134674 
	C857.619324,468.051788 858.510803,466.456940 860.835266,466.394897 
	C863.154297,469.651428 864.599731,473.648712 862.949768,477.364197 
	C861.531067,480.558807 857.427002,480.873169 854.125183,480.965363 
	C850.981812,481.053162 847.997437,480.102875 845.152039,478.404755 
	C836.484192,473.231903 836.403748,459.093689 843.498901,453.179077 
	C847.080383,450.193512 846.659058,447.608124 844.132019,444.321594 
	C838.402222,436.869598 831.485779,430.629761 824.371094,424.592926 
	C821.692322,422.319977 819.953247,423.141418 819.132385,426.594452 
	C816.998596,435.569946 816.927124,444.556030 817.390747,453.771118 
	C817.876465,463.426117 821.592712,469.200043 830.479004,473.547394 
	C840.419617,478.410583 842.891541,489.037628 838.449524,499.291901 
	C837.330383,501.875275 835.650818,504.347839 836.019409,507.317261 
	C836.514099,511.302887 834.342224,511.730865 831.203796,511.411591 
	C829.495972,511.237885 827.975281,510.689880 826.454895,509.997925 
	C812.961853,503.856781 807.854736,492.157562 805.685303,478.559265 
	C801.533691,452.536621 795.711609,426.957642 785.657410,402.492828 
	C772.426270,370.297699 752.194885,342.779083 728.813843,317.354126 
	C726.732605,315.090973 724.457642,314.155243 721.339905,314.298004 
	C717.027222,314.495392 712.676819,314.330292 708.370483,313.978119 
	C706.644165,313.836975 704.584473,313.129395 704.579102,310.727753 
	C704.573792,308.349030 706.346130,307.837646 708.299927,307.540558 
	C710.537170,307.200317 712.752747,306.718262 714.965332,306.300201 
	C714.768372,303.994171 713.210693,303.104980 711.999146,302.082947 
	C695.548584,288.204956 678.466248,275.212158 659.579163,264.744934 
	C653.176270,261.196472 653.217957,261.121307 650.925903,268.048553 
	C649.191040,273.291748 643.192017,277.511078 637.959167,277.290344 
	C636.072571,277.210785 634.675842,276.589447 634.211670,274.686737 
	C633.754089,272.810699 635.018738,272.060089 636.506165,271.397461 
	C637.863892,270.792633 639.253357,270.124542 640.394226,269.196045 
	C642.560547,267.433014 643.595154,265.387451 640.621887,262.618195 
	C637.019775,266.230286 632.537048,266.024933 630.634949,261.864777 
	C628.064026,256.242004 635.087402,256.888489 637.619324,254.034470 
	C633.686768,251.907181 629.598694,250.644669 625.522461,249.296478 
	C603.005981,241.849472 580.060059,236.657043 556.346802,234.710068 
	C550.189697,234.204544 546.288574,235.236099 542.568237,240.548386 
	C534.342773,252.293701 523.443237,260.855164 509.233459,264.559998 
	C505.409515,265.556946 501.646881,265.858368 498.174652,263.517456 
	C496.747467,262.555298 495.653229,261.219482 495.983276,259.343536 
	C496.291321,257.592926 497.778595,257.112457 499.277557,256.726837 
	C502.345062,255.937729 505.372406,255.065842 508.149750,253.450897 
	C510.342255,252.176025 511.297455,250.425583 510.327972,248.037888 
	C508.863800,244.431717 508.624420,240.694794 509.163574,235.957916 
	C481.963715,239.442841 456.438019,246.475266 432.083466,257.674530 
	C434.276917,265.582642 429.524841,274.680786 422.427643,277.278687 
	C419.480072,278.357605 416.584869,278.607941 413.731140,277.075226 
	C412.198914,276.252289 410.865448,275.088654 410.978607,273.231567 
	C411.114746,270.997620 413.051758,270.940948 414.704346,270.760620 
	C417.161926,270.492462 419.641632,270.314728 420.593414,266.973602 
	C416.437714,265.799683 413.591705,268.004944 410.714813,269.686493 
	C387.190430,283.436493 367.099640,301.319031 348.696289,321.249542 
	C314.177094,358.633331 291.634003,402.074738 282.482605,452.244415 
	C280.032562,465.676025 281.242523,478.387451 291.249207,489.036163 
	C294.777039,492.790344 297.832794,497.033112 299.627960,501.970032 
	C301.082062,505.969116 302.044220,510.058167 299.073425,513.836548 
	C296.451843,517.170837 293.237366,517.024231 291.834320,513.138916 
	C289.419189,506.450958 284.627228,501.591858 280.067657,496.557892 
	C271.388824,486.975830 265.364685,476.040436 262.344086,463.462463 
	C259.781799,452.793030 257.422729,442.069092 254.578857,431.475281 
	C253.082321,425.900421 252.306625,420.009796 248.854141,414.260895 
	C248.659668,413.281799 248.589249,412.256622 248.246002,411.332825 
	C247.425385,409.124207 247.634018,405.542023 244.392227,405.782471 
	C241.589920,405.990295 238.753387,405.798950 235.991943,406.223999 
	C233.021561,406.681244 231.129700,408.930176 230.851257,411.653656 
	C230.585052,414.257477 232.495758,416.419373 234.856842,417.467896 
	C237.505005,418.643799 239.149841,416.713806 240.672058,414.816315 
	C241.776520,413.439453 242.391266,411.497437 244.794144,411.120697 
	C246.124268,412.339539 247.572220,413.666351 248.977554,415.803772 
	C248.361359,424.119812 244.312668,427.717194 236.045364,427.294434 
	C228.970428,426.932648 223.023239,420.367706 222.909576,412.794159 
	C222.782990,404.360931 225.899261,399.810211 234.132202,396.405487 
	C241.574097,393.327942 241.662277,393.305084 239.620056,385.417633 
	C237.530716,377.348328 235.766037,369.239655 235.117264,360.905731 
	C234.920700,358.380554 235.558914,355.680237 233.985107,352.792816 
	C233.171768,353.851257 232.541168,354.416473 232.223755,355.122437 
	C224.766098,371.709717 219.033829,388.925598 213.654266,406.268646 
	C212.887680,408.740021 213.767746,410.672058 215.267136,412.705933 
	C220.994751,420.475342 226.793076,428.098053 233.601273,435.054413 
	C241.046036,442.661102 241.402557,453.223785 235.733780,460.602600 
	C231.232605,466.461578 222.561874,468.743500 215.925461,465.815643 
	C210.251907,463.312592 207.486084,456.384308 208.467407,448.887543 
	C209.140274,443.747284 212.292892,440.238190 215.403763,436.479645 
	C213.490768,433.973572 212.191788,431.282776 208.697998,429.670502 
	C206.670380,440.635437 203.298965,450.953339 206.783295,461.864319 
	C209.269318,469.649170 211.918610,477.414154 215.555084,484.685669 
	C220.336319,494.246277 217.175858,502.851501 213.555664,511.511566 
	C212.702332,513.552795 210.238098,515.003784 213.034683,517.335449 
	C215.518661,519.406555 217.334381,522.447327 221.530777,520.203491 
	C224.861877,518.422363 228.403229,516.738098 232.327759,516.503418 
	C236.553055,516.250671 240.086670,519.233704 240.033691,523.163086 
	C239.973984,527.592468 237.147385,528.734680 233.272476,528.399963 
	C232.777267,528.357178 232.272141,528.391174 231.774109,528.425720 
	C230.050797,528.545105 228.262741,528.885986 227.644653,530.670532 
	C227.026459,532.455383 228.733124,533.308411 229.846786,534.213318 
	C242.654343,544.619629 254.722733,555.865417 267.040131,566.829102 
	C268.641663,568.254639 270.129608,570.047913 273.081329,570.750305 
	C270.243256,559.456909 267.051056,548.885498 266.072815,537.987488 
	C265.086060,526.994812 261.966400,518.923279 251.048050,513.085022 
	C238.738693,506.502930 238.644196,495.612915 248.639175,485.663666 
	C251.029404,483.284363 251.353439,481.170258 249.068466,478.816833 
	C247.220764,476.913727 245.161743,475.216766 243.213638,473.409851 
	C241.773575,472.074127 240.974228,470.511780 241.660980,468.497589 
	C242.397415,466.337769 244.251968,466.153259 246.113892,466.010712 
	C250.498779,465.674957 253.848541,467.852142 256.714172,470.749115 
	C267.262543,481.412750 274.768524,493.779572 277.155914,508.814423 
	C278.354309,516.361145 279.158356,523.969849 280.290497,531.528015 
	C285.291351,564.914734 294.633514,596.750305 312.868866,625.621399 
	C324.184479,643.536987 336.135864,660.926270 349.943024,677.026123 
	C353.689911,681.395142 357.536346,684.733582 363.898621,683.824158 
	C366.993713,683.381714 370.217651,684.239014 373.165924,685.392700 
	C375.230377,686.200439 377.113464,687.718384 376.789124,690.225220 
	C376.516846,692.329651 374.495178,692.880554 372.655090,693.252563 
	C371.081024,693.570862 369.230774,693.353333 368.448212,696.439026 
	C388.955963,712.717651 411.434845,726.031311 436.004791,735.506409 
	C437.915192,733.406311 437.693573,731.668945 437.638733,730.055481 
	C437.437622,724.141724 440.732239,720.305786 445.372589,717.554443 
	C448.243622,715.852173 452.117310,714.295715 454.327271,717.849182 
	C456.312714,721.041626 452.508759,722.584717 450.494354,724.356140 
	C449.037079,725.637695 446.686920,726.444519 447.345947,728.926514 
	C448.057037,731.604736 450.492035,730.747925 452.391327,730.835266 
	C453.056152,730.865906 453.726746,730.798523 454.389069,730.849426 
	C455.975403,730.971130 457.386566,731.525146 457.930908,733.139832 
	C458.525604,734.903809 457.169922,735.847778 456.082031,736.883850 
	C453.604675,739.243103 450.662506,739.927856 447.231506,739.251038 
	C448.110962,740.060364 448.942108,740.570679 449.838348,740.908142 
	C477.197540,751.211365 505.546112,756.302490 534.726868,757.081299 
	C537.898010,757.165894 539.556152,755.615173 540.886108,753.002563 
	C545.703674,743.538757 553.173767,736.487732 561.840271,730.632690 
	C570.185242,724.994751 579.268799,721.661011 589.541016,722.486572 
	C592.467163,722.721680 595.555664,723.140442 595.912781,726.763855 
	C596.278137,730.470459 592.945374,730.741760 590.470276,731.380981 
	C579.150208,734.304565 569.738037,740.305237 561.934631,748.897095 
	C559.863831,751.177185 557.810791,753.546875 556.288025,757.750427 
	C564.359314,753.615173 567.408142,744.688171 575.948242,742.281860 
	C576.763062,747.272461 573.471985,750.812683 573.663818,754.913696 
	C594.110718,757.445251 667.255432,732.555054 675.042480,720.067261 
	C673.594849,719.833435 672.363098,720.162292 671.193848,720.885132 
	C669.617249,721.859802 667.887207,723.072266 666.195557,721.510071 
	C664.422485,719.872803 665.370972,717.716553 665.983459,715.870239 
	C666.689514,713.741882 668.226135,712.274963 670.351868,711.338928 
	C676.767944,708.513611 682.602600,708.925720 687.448242,714.522766 
	C720.498718,693.803467 745.778870,666.017883 766.037292,633.570007 
	C785.141357,602.971130 796.740356,569.484436 802.446411,533.881287 
	C804.133362,523.355591 803.296875,513.804443 795.637756,505.580811 
	C792.471863,502.181610 789.709351,498.362335 787.651855,494.133789 
	C786.255127,491.263031 785.080383,488.365906 786.384094,485.043549 
	C787.074097,483.285034 787.605164,481.438721 789.723938,481.093384 
	C791.916321,480.736115 793.810608,481.709290 794.710815,483.662689 
	C797.241211,489.153656 801.888489,492.773773 805.957275,496.917267 
	C815.507446,506.642914 823.204895,517.468750 828.061707,530.421997 
	C831.143616,538.641479 832.980957,547.419373 838.017761,555.031738 
M310.807312,312.776520 
	C310.760590,312.639618 310.713867,312.502747 310.667114,312.365845 
	C310.540436,312.643402 310.278442,312.935638 310.306702,313.196411 
	C311.336365,322.691589 300.567078,328.646545 292.116364,324.955658 
	C289.672577,323.888336 287.593689,322.126495 288.439240,319.243164 
	C289.196075,316.662201 291.586548,316.725433 293.871307,317.345306 
	C294.666260,317.560974 295.509369,317.672791 296.333801,317.692291 
	C299.141388,317.758728 300.584686,316.032562 301.281006,313.598145 
	C301.954681,311.242859 300.567444,309.694641 298.692047,308.766113 
	C296.276001,307.569916 294.471832,308.670776 293.440155,310.961060 
	C292.524384,312.994080 291.001648,313.538208 288.976593,313.206451 
	C286.592651,312.815948 286.410889,310.809784 286.114319,309.047913 
	C285.016083,302.523987 291.310272,297.648376 299.164124,298.876953 
	C306.319885,299.996307 309.891418,297.002808 309.591095,289.684082 
	C309.393951,284.880707 308.702057,280.091919 308.112671,275.311279 
	C305.747620,256.127655 297.240417,238.703079 292.266510,220.264389 
	C292.016968,219.339325 291.633972,218.330658 289.589661,217.787781 
	C284.510681,229.519226 282.237061,241.854065 281.223969,255.464691 
	C287.412567,251.899155 290.809082,246.726547 296.198273,243.222717 
	C298.135010,246.501144 299.353882,249.691696 300.672333,252.903656 
	C302.347534,256.984894 301.391571,259.708374 298.014893,262.388336 
	C291.084717,267.888550 285.281128,274.593445 279.092499,280.883789 
	C266.026093,294.164948 256.307739,309.189392 252.200745,327.777771 
	C248.915558,342.646576 248.092606,357.294220 251.237717,372.222595 
	C255.303314,391.520081 263.610809,409.445221 269.066498,428.286987 
	C269.334808,429.213654 269.634277,430.281952 270.997894,430.164612 
	C271.906433,429.895020 272.282593,429.155457 272.495758,428.343140 
	C275.283600,417.719604 278.722748,407.302460 282.629272,397.046570 
	C284.860504,391.188904 284.889984,385.556854 282.855530,379.552277 
	C276.181458,359.853882 270.821991,339.814026 266.948120,319.335907 
	C264.843994,308.213013 264.829102,298.300018 274.536163,290.573975 
	C276.089111,289.337982 276.657990,286.727631 279.851440,287.055817 
	C276.803345,315.206635 285.663544,341.030121 293.811432,367.780518 
	C295.103424,366.554382 295.651215,366.169098 296.021027,365.655609 
	C296.798004,364.576782 297.453491,363.411346 298.207642,362.314972 
	C308.385925,347.517456 310.636169,330.682159 310.807312,312.776520 
M817.864441,621.722412 
	C824.118774,634.663147 830.623901,647.490540 835.397095,661.380554 
	C840.119385,655.845886 842.213684,649.311890 845.600342,643.520630 
	C851.079712,634.150696 852.897522,624.815125 846.988708,614.951416 
	C846.238159,613.698486 846.098267,612.096252 845.523132,610.719482 
	C837.509094,591.534729 829.485901,572.353821 821.413269,553.193604 
	C820.359192,550.691833 819.912415,547.797363 817.565796,545.909973 
	C816.333130,546.564941 816.014587,547.530518 815.813843,548.491089 
	C813.056396,561.686157 809.452087,574.659790 805.671265,587.589355 
	C804.993958,589.905640 805.403625,592.175659 806.223633,594.428467 
	C809.526123,603.501770 813.083923,612.463806 817.864441,621.722412 
M202.172501,517.623108 
	C202.102280,528.987366 204.576630,540.092896 205.616806,551.345398 
	C206.369370,559.486633 209.078629,566.385864 217.170792,570.281311 
	C221.218597,572.229797 222.495865,575.973267 222.440338,580.670166 
	C222.315369,591.241150 224.281281,601.553955 228.733002,611.203369 
	C231.354279,616.885132 232.998154,616.888428 236.832947,611.937561 
	C230.651779,606.851929 232.152161,599.407410 240.334625,596.200989 
	C244.067490,594.738281 247.414856,593.508911 247.217590,588.781616 
	C254.226990,589.555847 259.739746,595.546570 261.140167,603.952271 
	C262.035828,609.328247 261.507965,614.562439 258.470825,619.347717 
	C255.142334,624.591980 249.137787,624.136230 243.380493,625.771301 
	C249.463089,631.625427 255.438568,635.971985 262.180786,639.830322 
	C264.054291,637.566406 265.576935,635.388916 267.435333,633.550842 
	C271.360840,629.668274 276.216522,628.161499 281.614594,629.233032 
	C285.895294,630.082764 288.596069,632.948059 289.790131,637.149414 
	C291.159851,641.968750 288.486084,645.702881 283.292206,646.290161 
	C282.744537,644.397461 282.377350,642.426697 281.601501,640.632751 
	C280.722351,638.599976 279.245087,636.599121 276.826477,636.867676 
	C274.551819,637.120239 273.129242,639.079529 272.488831,641.253357 
	C271.791260,643.621094 272.645782,645.609192 274.839630,646.734375 
	C280.556061,649.666382 286.330353,652.485596 291.797638,655.208313 
	C293.557465,653.670105 293.623596,652.303711 293.509430,650.984741 
	C292.835236,643.197327 292.431763,635.366089 291.288269,627.645691 
	C290.242767,620.586853 289.161224,613.041504 283.013031,608.386719 
	C276.928589,603.780273 271.011993,598.841736 264.181763,595.260498 
	C248.090454,586.823364 232.666214,577.239380 217.148621,567.818115 
	C214.415512,566.158752 211.650970,564.173157 210.693298,561.092712 
	C208.637039,554.478455 208.149551,547.561157 207.887558,540.130432 
	C217.851151,551.260986 229.598114,559.528931 242.973572,565.807190 
	C242.927216,564.211975 241.741302,563.712646 240.955521,562.988098 
	C231.770966,554.519409 222.878708,545.691040 213.246109,537.763550 
	C204.633530,530.675476 204.421265,521.395447 204.977127,511.891174 
	C205.296875,506.424072 204.310883,501.378723 202.974106,496.202820 
	C200.526932,502.981506 201.495041,509.836334 202.172501,517.623108 
M715.453125,783.936523 
	C726.979370,777.685242 734.238037,767.931580 739.125610,755.959045 
	C747.556274,735.307556 751.662231,713.648193 754.608887,691.710632 
	C755.227051,687.109009 756.750549,682.493713 755.911011,677.556030 
	C736.144897,686.242188 699.761353,762.400024 701.385132,791.654236 
	C706.533752,790.178772 710.474609,786.817139 715.453125,783.936523 
M296.534546,730.913025 
	C302.492706,738.683838 311.034729,740.004272 319.841125,739.458923 
	C337.401337,738.371460 350.744629,728.179138 363.963318,717.955200 
	C366.217377,716.211731 365.921539,714.539612 363.768127,712.680847 
	C347.679840,698.793457 328.394989,690.384460 309.677460,681.008179 
	C306.651062,679.492126 304.769043,680.135864 304.178436,683.980469 
	C302.714783,693.508362 301.278870,703.009827 300.883240,712.675293 
	C300.575378,720.198120 302.431580,722.996826 309.952026,722.912048 
	C316.114380,722.842590 322.197235,722.658875 328.260773,724.078613 
	C331.256348,724.779968 333.547119,723.402344 334.432587,720.403015 
	C335.260651,717.598083 333.940002,715.503723 331.512115,714.174805 
	C328.277008,712.404175 327.118774,714.908630 325.785278,717.088745 
	C324.844330,718.626892 323.939026,720.568176 321.593048,719.639771 
	C319.324677,718.742004 318.401367,716.890747 318.585083,714.441528 
	C318.802826,711.539124 320.422180,709.452881 322.585144,707.809570 
	C328.902710,703.009644 338.413879,705.163269 343.035400,712.352539 
	C347.474121,719.257446 345.213348,726.643677 337.348145,730.599548 
	C331.945099,733.317078 326.099182,734.556458 320.179016,735.607178 
	C308.907898,737.607483 300.513031,733.521973 296.962982,722.740234 
	C294.585663,715.520081 287.561707,711.297546 286.658752,702.725586 
	C283.568115,706.017395 282.773987,708.737488 283.776978,712.544067 
	C288.475403,709.857849 289.511139,712.730957 290.672607,716.397888 
	C292.171326,721.129639 293.524261,725.976562 296.534546,730.913025 
M790.314941,365.264099 
	C791.762939,375.594482 796.090820,384.194641 804.744507,390.488617 
	C810.778503,394.877289 811.597900,394.822632 813.702271,387.791595 
	C817.074768,376.523529 820.346008,365.225098 823.789734,353.497803 
	C813.729980,347.432617 803.092407,342.364014 792.341003,337.555298 
	C789.335754,336.211182 788.179260,338.236694 788.123169,341.126434 
	C787.970703,348.969360 788.527710,356.741150 790.314941,365.264099 
M868.600037,436.866699 
	C871.811646,439.082977 875.023254,441.299255 878.234863,443.515533 
	C875.970459,440.296844 873.236877,437.825165 870.143005,435.946716 
	C864.571289,432.563782 862.417358,427.961456 862.558167,421.395233 
	C862.737915,413.015411 860.379822,404.953308 857.262512,397.172546 
	C855.751587,393.401215 853.831360,390.240845 848.878479,391.196777 
	C846.971924,391.564758 845.894104,390.097260 844.738586,388.876984 
	C842.927612,386.964447 840.898071,386.976715 838.975952,388.625702 
	C836.972534,390.344452 836.483032,392.657318 837.632019,394.963074 
	C838.884583,397.476685 841.258728,397.352295 843.208679,396.095215 
	C845.789551,394.431335 847.620605,394.977905 849.047363,397.353302 
	C850.737244,400.167084 849.139771,402.085419 846.929138,403.649811 
	C841.615845,407.409790 833.943481,406.332581 829.729126,401.402893 
	C828.578247,400.056671 828.392761,397.974823 826.550049,397.157043 
	C822.434387,402.543274 822.501160,404.403381 827.418457,408.280823 
	C830.417419,410.645508 833.697449,412.653076 836.843689,414.832001 
	C847.239136,422.031281 857.631287,429.235565 868.600037,436.866699 
M265.544403,664.279114 
	C262.985504,667.283325 260.425415,670.285034 255.244186,668.077576 
	C260.195129,679.953613 266.452576,689.977539 274.031647,699.778748 
	C277.470612,695.524963 280.441101,691.850769 283.363953,688.235413 
	C281.583160,685.605652 279.230896,685.481384 276.914398,685.335632 
	C273.759521,685.137024 273.354980,683.435120 274.444061,680.912292 
	C276.884735,675.258728 281.514343,675.787598 286.297028,676.728943 
	C288.222504,677.107910 290.232025,677.931091 291.188049,675.071228 
	C292.152649,672.185791 290.377106,671.209351 288.292847,670.214233 
	C282.889435,667.634399 277.463074,665.094788 272.139618,662.356873 
	C262.148651,657.218445 252.536484,651.430969 243.261292,645.049133 
	C248.707794,651.709045 255.579315,656.427185 263.277924,660.063110 
	C264.783142,660.774048 267.224884,660.952148 265.544403,664.279114 
M185.152893,512.729980 
	C183.234711,510.347198 181.289566,510.483521 179.328949,512.673035 
	C177.552399,514.656982 175.799530,516.662537 173.999863,518.625244 
	C173.024002,519.689514 172.028275,520.217163 170.549332,519.177856 
	C166.504379,516.335205 165.918365,511.971558 169.170959,508.140381 
	C170.570602,506.491821 171.901932,504.785370 173.273331,503.112640 
	C174.239075,501.934692 174.518234,500.563782 173.417587,499.495453 
	C167.641464,493.888916 161.817596,488.323700 154.889389,483.579163 
	C152.360001,499.293518 175.924042,536.175720 188.829620,539.693970 
	C188.396851,531.926758 188.047455,524.318237 187.472809,516.726746 
	C187.382401,515.532227 186.271622,514.414978 185.152893,512.729980 
M901.821167,479.705902 
	C899.919006,478.763763 898.801453,475.460083 896.032532,477.275665 
	C894.423157,478.330902 892.619690,480.561859 893.668701,482.325836 
	C896.015625,486.272430 894.979187,490.407837 895.348816,494.460876 
	C895.511169,496.241028 895.031494,498.412201 897.077881,499.298798 
	C899.026672,500.143127 899.973633,498.156158 901.163635,497.127106 
	C903.226990,495.342926 905.460754,493.179504 908.143982,495.264862 
	C911.132507,497.587402 913.739136,500.446533 915.593872,503.871674 
	C916.661804,505.843872 915.986877,507.404999 914.615356,508.812042 
	C913.176819,510.287781 911.353638,510.912537 909.745972,509.405609 
	C907.059448,506.887451 905.325500,508.490417 903.493408,510.415497 
	C901.314697,512.704834 903.088501,514.393372 904.418701,516.032410 
	C909.236145,521.968445 914.094543,527.871948 919.006042,533.730225 
	C919.901245,534.797974 920.751648,536.315552 923.532654,535.325684 
	C922.943359,514.547546 917.797424,495.470184 901.821167,479.705902 
M820.883545,319.628296 
	C817.757446,311.937164 814.039612,304.608215 807.887268,297.781036 
	C805.283142,302.274811 802.531921,301.692444 799.197571,299.164093 
	C797.318604,297.739319 794.591553,297.662476 793.024658,300.148193 
	C791.689941,302.265747 791.576416,304.698822 793.464233,306.589569 
	C795.470703,308.599091 797.550659,307.385895 799.249084,305.968719 
	C801.276245,304.277252 803.216797,303.351379 805.305176,305.628357 
	C807.201416,307.695770 806.690247,309.958008 805.326355,312.051361 
	C802.967468,315.671936 799.635437,317.403595 795.231445,317.384918 
	C793.330200,317.376831 790.784119,316.235779 789.719910,318.991425 
	C789.881592,320.100098 790.511719,320.632568 791.281311,320.992371 
	C800.622559,325.359100 809.924561,329.814087 819.337280,334.021484 
	C823.362610,335.820770 823.585938,332.475708 823.332214,330.064972 
	C822.987671,326.792053 821.914734,323.595795 820.883545,319.628296 
M844.323364,378.708252 
	C849.036560,379.158813 850.231812,377.101929 848.976135,372.709991 
	C847.544739,367.703522 841.686768,363.024567 833.976624,360.840637 
	C838.258484,368.586884 829.098633,375.143036 830.870056,383.181122 
	C835.023560,381.075928 838.733337,378.320679 844.323364,378.708252 
M559.507751,783.934570 
	C556.751099,788.917114 553.311340,793.537292 551.873047,799.356934 
	C560.354248,790.377197 568.835449,781.397461 578.007996,771.685730 
	C567.389954,770.688904 567.384521,770.685669 562.896973,778.154419 
	C561.872498,779.859497 560.899719,781.595703 559.507751,783.934570 
M514.157654,211.652069 
	C512.042969,213.935715 509.594330,215.966827 508.420410,219.035645 
	C516.453674,220.678696 517.222046,220.367157 521.208435,214.115875 
	C524.162842,209.482803 527.202576,204.903015 530.091431,200.229736 
	C531.030945,198.709946 532.244873,197.152374 531.981628,194.356476 
	C525.240112,199.701630 520.225281,205.722412 514.157654,211.652069 
M765.185547,326.375183 
	C762.563110,325.701294 760.155701,323.956909 756.151672,324.641144 
	C760.937439,332.147003 766.086121,338.400055 771.681274,345.069183 
	C775.953979,333.765259 774.606445,329.977753 765.185547,326.375183 
M312.093872,651.503723 
	C311.002167,650.349121 310.654816,648.429504 308.120453,648.051941 
	C307.866089,651.847839 307.594299,655.578796 307.378723,659.313110 
	C307.311279,660.481567 307.333862,661.749084 308.365356,662.527771 
	C313.306641,666.257507 318.737366,669.047791 325.021637,670.588501 
	C320.843628,664.416199 316.665588,658.243896 312.093872,651.503723 
M743.766113,838.839539 
	C748.597595,840.444092 752.017456,839.341431 753.873596,835.682556 
	C755.457336,832.560791 753.603271,830.610107 751.509216,828.909119 
	C748.704346,826.630859 745.567871,826.473755 743.004395,829.107788 
	C740.144470,832.046265 740.364136,835.316406 743.766113,838.839539 
M242.659576,612.837341 
	C245.190231,614.980408 247.728500,615.391541 249.984070,612.550232 
	C252.354111,609.564697 251.859100,606.718140 249.130875,604.199402 
	C247.420334,602.620239 245.302963,601.444092 243.443253,603.437256 
	C241.093597,605.955566 238.591278,608.843140 242.659576,612.837341 
M219.892105,445.823090 
	C218.828903,446.874634 217.786133,447.960785 217.433533,449.468536 
	C216.853668,451.948120 217.562103,454.031738 219.515839,455.681061 
	C221.073517,456.995972 222.830521,457.275452 224.569351,456.259583 
	C226.557129,455.098267 228.047455,453.084106 227.472015,450.934387 
	C226.579788,447.601318 224.960587,444.400848 219.892105,445.823090 
M879.990295,517.066223 
	C881.144775,511.749115 880.806458,506.456238 880.311890,500.734711 
	C875.052612,504.733978 873.930237,514.077515 877.463806,520.140503 
	C878.815857,519.933105 879.263855,518.853149 879.990295,517.066223 
M258.431824,494.115082 
	C255.646500,492.368469 254.453583,494.250244 253.629166,496.394775 
	C252.358292,499.700714 254.456314,503.675262 258.181274,505.204132 
	C261.151154,506.423035 262.827789,505.367432 262.482635,502.153442 
	C262.177582,499.313263 260.864929,496.781250 258.431824,494.115082 
M826.543762,494.959015 
	C831.154663,491.073181 830.817749,486.142548 825.760376,483.494995 
	C822.565674,481.822571 821.189941,482.710815 821.250061,486.442505 
	C821.308411,490.066345 823.161560,492.705444 826.543762,494.959015 
M541.973816,218.088791 
	C543.065674,215.519043 541.583069,213.347214 539.608582,213.129456 
	C536.778015,212.817261 535.994812,215.689117 535.029114,218.003494 
	C537.270691,219.289612 539.353271,218.771484 541.973816,218.088791 
M548.363342,775.456543 
	C548.686829,774.254272 549.873657,773.148987 548.638611,771.577271 
	C546.536133,771.276428 544.304810,770.860046 541.632263,772.384583 
	C543.846375,774.045593 544.031555,778.035645 548.363342,775.456543 
M527.827148,236.054733 
	C527.952820,235.441681 529.027344,234.010803 527.498108,234.504684 
	C524.763184,235.388000 522.844299,237.439133 522.796326,241.139069 
	C525.013367,239.904083 526.313721,238.269409 527.827148,236.054733 
z"/>
<path fill="#D4AF37" opacity="1.000000" stroke="none" 
	d="
M622.909363,800.014587 
	C627.699219,786.970825 632.603210,774.434631 640.579224,763.330322 
	C644.504578,757.865295 649.280701,754.239746 656.191284,753.951294 
	C657.165222,753.910645 658.194214,753.627014 659.351868,754.993286 
	C645.490540,774.040039 639.431641,796.819885 629.688965,819.515808 
	C646.890564,815.718689 661.910706,809.292419 677.191895,803.303894 
	C677.680359,813.806885 672.724792,821.585754 663.593628,825.026611 
	C659.543152,826.552917 655.469421,828.022827 651.371765,829.417175 
	C647.434265,830.756958 643.452148,831.965881 638.978943,833.395508 
	C640.792175,834.412048 640.590210,835.679565 640.010742,837.150940 
	C631.580872,858.555298 621.158264,878.676697 604.179382,894.805359 
	C596.013611,902.562256 586.536255,907.806702 575.853210,911.028320 
	C574.283691,911.501709 572.562256,911.854431 570.955078,911.723450 
	C568.903198,911.556335 567.057068,910.531860 566.461609,908.319885 
	C565.898560,906.228271 567.139099,904.821899 568.722046,903.728577 
	C569.676208,903.069641 570.693237,902.460693 571.758301,902.009521 
	C591.899780,893.477844 604.561279,877.502625 614.504456,858.898132 
	C617.405823,853.469360 619.950684,847.840576 622.447571,842.209656 
	C623.502686,839.830322 624.884094,837.911072 627.063477,836.317017 
	C611.718811,840.838806 596.028748,843.298950 580.233948,845.169067 
	C564.354309,847.049194 548.456970,846.296021 532.302124,846.071960 
	C535.805664,836.679810 544.029785,830.595520 552.944702,830.848877 
	C571.531982,831.377136 589.808167,829.444153 607.839783,824.887512 
	C611.401855,823.987305 613.794189,822.213196 615.161133,818.839966 
	C617.661072,812.670898 620.244812,806.535828 622.909363,800.014587 
z"/>
<path fill="#D4AF37" opacity="1.000000" stroke="none" 
	d="
M668.617188,184.419708 
	C660.511230,181.269562 652.735596,178.319397 645.018677,175.223221 
	C641.522583,173.820526 638.777039,174.621017 635.828247,176.863342 
	C626.147522,184.224731 615.938599,190.823395 605.358215,196.823868 
	C599.391357,200.207855 593.103455,202.800812 586.262878,203.878159 
	C583.412048,204.327133 580.699158,203.996841 579.346619,201.229858 
	C577.798523,198.063080 580.620300,196.746674 582.657715,195.478424 
	C594.248718,188.263016 605.675354,180.802399 616.835327,172.936417 
	C618.293701,171.908554 620.062500,171.184387 621.013306,168.752823 
	C608.433838,164.665085 595.487061,162.314484 582.322876,159.151840 
	C585.517273,153.989365 589.480408,150.473434 593.464905,147.005905 
	C595.585083,145.160797 598.013306,146.557220 600.155212,147.011536 
	C611.538879,149.426071 622.834900,152.270294 633.832886,156.069000 
	C638.069336,157.532272 641.466980,157.081512 645.010681,154.601074 
	C654.410339,148.021805 664.570435,143.307114 676.179016,142.186127 
	C681.515076,141.670868 686.834595,141.446640 692.053223,142.795334 
	C694.885010,143.527145 698.534058,144.172379 698.013306,148.187317 
	C697.538635,151.847000 694.511292,153.401703 691.014709,153.218811 
	C683.350952,152.817917 676.117432,154.395035 669.199524,157.530487 
	C666.209229,158.885818 663.028015,160.032059 660.081970,163.645187 
	C682.303040,173.071472 704.118225,182.556412 724.659180,196.747757 
	C718.694031,199.206573 713.630066,201.384842 708.484375,203.349106 
	C707.244202,203.822525 705.933838,202.985657 704.735046,202.328537 
	C693.053284,195.925354 681.103943,190.057617 668.617188,184.419708 
z"/>
<path fill="#D4AF37" opacity="1.000000" stroke="none" 
	d="
M497.064056,160.983658 
	C486.409271,159.994156 480.136597,164.671539 475.874695,174.663101 
	C468.967560,190.855942 463.212677,207.605392 454.233521,222.886993 
	C452.090820,226.533676 449.752197,229.860092 445.974274,232.008102 
	C444.182648,233.026749 442.280884,233.705200 440.301361,233.689835 
	C438.346252,233.674667 436.023865,233.566422 434.905487,231.695541 
	C433.725555,229.721695 435.687134,228.319229 436.681061,226.910477 
	C446.887115,212.445175 451.838501,195.528732 458.796082,179.553589 
	C460.425018,175.813385 462.567963,172.191849 462.954559,167.314987 
	C453.021606,168.801163 443.428650,170.236465 432.430908,171.881958 
	C437.899658,164.004166 439.377594,155.207703 450.287506,153.141785 
	C477.587097,147.972351 504.815582,142.612961 532.747864,143.072067 
	C541.995117,143.224060 551.317749,143.343842 560.517639,145.190750 
	C558.284241,151.345291 547.120605,159.327103 541.074524,159.315964 
	C526.608582,159.289291 512.113586,158.408691 497.371765,160.867447 
	C497.019318,161.002518 497.064056,160.983658 497.064056,160.983658 
z"/>
<path fill="#D4AF37" opacity="1.000000" stroke="none" 
	d="
M745.292603,250.293365 
	C748.237061,247.563019 750.869568,245.017990 753.612732,242.598343 
	C755.957581,240.530029 755.764587,238.659821 753.390747,236.888336 
	C751.122925,235.195908 748.770996,233.616760 746.480103,231.954559 
	C740.462097,227.588089 740.398193,227.520218 735.603943,232.985703 
	C733.088379,235.853409 730.767273,235.083420 728.202332,233.223602 
	C725.459778,231.234955 722.572205,230.748993 720.216675,233.647842 
	C717.992737,236.384796 717.847534,239.423676 720.128967,242.347656 
	C722.897888,245.896393 726.571106,245.502060 728.854004,241.445312 
	C730.001038,239.406952 730.307983,235.976822 733.779419,237.007126 
	C737.327026,238.060074 737.477661,241.332153 737.289612,244.440216 
	C737.023438,248.838638 734.298340,251.343430 730.471069,252.809616 
	C722.246094,255.960449 712.749207,251.830978 709.790710,243.897110 
	C706.329041,234.613785 710.049683,226.071243 719.284241,222.994202 
	C723.600952,221.555832 727.417419,219.770554 730.977234,216.762177 
	C737.341248,211.384033 747.354370,211.686172 754.438843,216.222229 
	C768.090881,224.963379 780.754211,234.929794 792.562195,246.008820 
	C793.528442,246.915466 794.451233,247.883667 795.279907,248.915115 
	C795.665161,249.394669 795.776367,250.094437 796.344360,251.541397 
	C790.585205,252.447311 785.164124,253.510635 779.692017,254.098160 
	C774.789246,254.624542 769.796265,257.006897 765.031311,252.617554 
	C763.265137,250.990570 760.708923,253.523621 758.967529,254.980621 
	C753.549561,259.513977 747.214966,262.505310 741.165405,265.999054 
	C736.909912,268.456726 735.120483,265.721100 733.225281,262.839935 
	C730.970154,259.411743 733.709167,258.173676 735.943420,256.687012 
	C738.988525,254.660751 742.001770,252.586670 745.292603,250.293365 
z"/>
<path fill="#D4AF37" opacity="1.000000" stroke="none" 
	d="
M863.014160,359.002380 
	C860.928955,350.679169 860.935608,350.465637 869.619385,350.735626 
	C887.386353,351.288055 904.356628,354.941254 918.737244,366.079773 
	C930.545532,375.225952 938.085693,387.011993 938.320374,402.522888 
	C938.342529,403.984528 938.159729,405.557983 937.618896,406.896362 
	C936.555603,409.527527 934.680176,411.497742 931.554626,411.094177 
	C928.707153,410.726562 928.013550,408.370911 927.706848,405.961121 
	C926.856934,399.281494 925.227173,392.905396 920.959045,387.471893 
	C910.539185,374.207184 896.430908,368.080933 880.067383,366.334442 
	C878.583191,366.176025 877.039490,366.023712 875.583252,366.251465 
	C869.695435,367.172211 865.656250,364.996979 863.235840,359.184631 
	C862.979919,358.952393 863.000488,358.987549 863.014160,359.002380 
z"/>
<path fill="#D4AF37" opacity="1.000000" stroke="none" 
	d="
M238.355835,254.793137 
	C225.334061,258.337646 214.450272,253.690323 210.753922,243.313293 
	C207.014893,232.816422 212.434189,220.719589 222.789978,216.446762 
	C232.894974,212.277420 245.345749,217.315887 249.565948,227.282227 
	C254.209579,238.248535 249.785110,249.424286 238.355835,254.793137 
M233.984467,230.260757 
	C230.616989,228.268082 227.694382,228.877365 225.078278,231.697067 
	C223.154556,233.770523 222.779648,236.083542 224.024765,238.552246 
	C225.191208,240.865005 226.866730,242.703033 229.746490,242.645355 
	C233.023438,242.579712 235.395660,240.992340 236.872940,238.078140 
	C238.489960,234.888260 236.738235,232.729141 233.984467,230.260757 
z"/>
<path fill="#D4AF37" opacity="1.000000" stroke="none" 
	d="
M444.516357,114.159630 
	C440.319794,122.801109 433.565247,127.299133 424.491516,127.137337 
	C416.642181,126.997360 410.509735,122.952354 406.999146,115.763939 
	C402.738892,107.040573 404.963593,96.859962 412.126648,90.865410 
	C419.024231,85.093040 429.201752,84.342575 436.324371,89.081047 
	C445.134094,94.941902 448.122253,103.781494 444.516357,114.159630 
M426.927368,100.446381 
	C422.956543,99.639030 420.504364,101.486305 419.459503,105.123726 
	C418.596008,108.129776 419.536469,110.837685 422.439728,112.238396 
	C425.389526,113.661560 428.278015,113.169098 430.471588,110.545853 
	C433.085632,107.419785 432.073975,104.071701 426.927368,100.446381 
z"/>
<path fill="#D4AF37" opacity="1.000000" stroke="none" 
	d="
M153.663116,617.900146 
	C153.660675,616.629578 153.629303,615.795105 153.680359,614.965637 
	C153.880157,611.719543 156.013138,610.317749 158.873444,609.856445 
	C161.814865,609.382019 163.073074,611.391602 163.823471,613.756042 
	C166.081375,620.870544 169.998627,626.955017 174.993088,632.444763 
	C184.827225,643.254089 197.966202,646.522278 211.613297,648.675537 
	C213.090607,648.908508 214.592377,648.987305 216.068939,649.223999 
	C224.158005,650.521057 227.572830,654.293396 228.787506,663.446777 
	C224.755188,665.399963 220.669556,663.666199 216.699249,663.241638 
	C201.009979,661.563965 185.717514,658.533691 173.009552,648.163879 
	C163.373276,640.300659 155.612350,631.201172 153.663116,617.900146 
z"/>
<path fill="#D4AF37" opacity="1.000000" stroke="none" 
	d="
M564.439331,115.797462 
	C555.438904,108.469231 553.184998,99.544571 557.788696,90.454285 
	C561.830505,82.473457 571.013184,78.113777 579.515076,80.139191 
	C590.619873,82.784698 597.835632,94.442596 594.819580,104.865250 
	C591.773254,115.392670 579.754395,121.435417 568.805115,117.888802 
	C567.396851,117.432671 566.095398,116.647202 564.439331,115.797462 
M573.591736,94.221916 
	C571.037781,96.164986 569.133850,98.460541 570.843628,101.814362 
	C572.082092,104.243774 574.259094,105.632462 577.026855,104.596748 
	C579.662231,103.610550 581.787354,101.639915 581.075623,98.577087 
	C580.293945,95.213287 578.116516,93.068588 573.591736,94.221916 
z"/>
<path fill="#D4AF37" opacity="1.000000" stroke="none" 
	d="
M500.856018,875.447876 
	C512.395447,871.939819 521.862732,875.214783 526.096802,883.863647 
	C530.208008,892.261536 527.008179,903.024414 518.954834,907.886169 
	C509.636963,913.511292 498.900024,911.461975 492.841522,902.901978 
	C487.603912,895.501831 489.332916,884.406677 496.766083,878.113159 
	C497.898407,877.154419 499.254089,876.459473 500.856018,875.447876 
M512.504883,894.921326 
	C514.528748,892.145386 513.681335,889.984619 511.028595,888.267334 
	C508.665436,886.737549 506.572723,887.312195 504.915588,889.387756 
	C503.223267,891.507568 503.483795,893.644043 505.242554,895.667358 
	C507.609283,898.390137 509.834869,897.501465 512.504883,894.921326 
z"/>
<path fill="#D4AF37" opacity="1.000000" stroke="none" 
	d="
M137.213470,572.867859 
	C128.596817,562.770203 130.218307,548.964844 140.926270,538.768616 
	C141.887772,537.853088 142.919769,537.006226 143.961731,536.181396 
	C153.420776,528.693176 155.323303,529.117676 161.791946,540.458801 
	C159.452499,542.347107 156.955566,544.189636 154.664459,546.259949 
	C152.328705,548.370667 150.067245,550.594543 148.009293,552.973083 
	C145.950378,555.352722 144.253143,557.996033 146.276657,561.341980 
	C149.256424,560.888550 149.638840,558.369019 150.948730,556.798950 
	C152.410919,555.046387 153.886963,554.272644 156.104553,555.495605 
	C161.099945,558.250366 162.816360,565.546204 159.502197,570.268311 
	C154.502014,577.392700 145.796722,578.517151 137.213470,572.867859 
z"/>
<path fill="#D4AF37" opacity="1.000000" stroke="none" 
	d="
M949.287842,448.993134 
	C954.094971,459.218903 951.627136,468.129639 945.532715,476.382416 
	C941.395813,481.984406 935.281250,485.731995 930.856201,492.313385 
	C927.652161,487.629791 925.692627,483.194885 924.331970,478.527496 
	C923.774109,476.614136 925.753540,475.737457 927.021667,474.717590 
	C931.069946,471.461700 934.600647,467.753021 937.182190,463.203308 
	C938.587952,460.725708 939.467896,458.249542 936.681763,456.118896 
	C933.925293,454.010956 932.340881,456.312042 930.915405,458.013092 
	C928.107727,461.363586 926.046875,460.411285 923.921875,457.314484 
	C920.521118,452.358398 921.318298,447.441040 926.243164,443.862183 
	C933.842773,438.339417 943.710144,440.396149 949.287842,448.993134 
z"/>
<path fill="#D4AF37" opacity="1.000000" stroke="none" 
	d="
M353.572662,280.684875 
	C342.134857,288.380402 329.450684,283.678345 327.072968,271.202118 
	C325.987152,265.504700 328.999847,257.953949 334.057922,255.270752 
	C341.999542,251.057892 350.539459,248.252640 359.197113,245.897415 
	C361.249939,245.338989 363.720398,245.225113 364.798676,247.780075 
	C365.840332,250.248245 364.355713,252.288361 362.420685,253.188812 
	C357.643463,255.411850 357.421997,258.206085 359.116394,262.970947 
	C361.482056,269.623688 359.209991,275.697693 353.572662,280.684875 
M347.113098,273.666718 
	C348.353882,272.732910 349.126740,271.453949 349.474030,269.990570 
	C350.088409,267.401703 349.707245,265.046326 347.338623,263.406860 
	C345.690460,262.266022 343.980927,261.115509 341.886627,262.312195 
	C339.417694,263.722900 337.963013,265.798584 338.082397,268.751068 
	C338.253998,272.993896 341.505524,275.044586 347.113098,273.666718 
z"/>
<path fill="#D4AF37" opacity="1.000000" stroke="none" 
	d="
M684.879761,779.157593 
	C684.811157,794.534485 671.274963,798.878296 661.106323,792.947327 
	C654.267395,788.958374 652.071167,776.745422 656.771118,769.716919 
	C661.556091,762.561218 673.469971,760.246826 679.806641,765.535278 
	C683.808044,768.874634 683.871033,774.061035 684.879761,779.157593 
M670.935425,785.301270 
	C674.280457,783.650391 675.712524,780.944397 674.145264,777.542603 
	C673.147888,775.377563 671.393799,772.941895 668.421448,773.726257 
	C665.802551,774.417419 664.217468,776.644470 664.443481,779.387512 
	C664.723206,782.781189 666.262451,785.421204 670.935425,785.301270 
z"/>
<path fill="#D4AF37" opacity="1.000000" stroke="none" 
	d="
M644.269287,220.979309 
	C638.611145,216.687286 637.538391,211.170609 639.282898,205.124496 
	C640.566833,200.674866 646.462708,196.918015 651.406433,196.856140 
	C656.377075,196.793915 660.029175,199.045746 662.185913,203.553146 
	C664.472656,208.331879 664.092834,213.040619 660.972839,217.223633 
	C658.024048,221.177139 653.968445,223.354919 648.833740,222.556046 
	C647.383667,222.330429 646.003845,221.652985 644.269287,220.979309 
M650.218384,212.143372 
	C652.657349,212.781281 653.592957,211.731796 653.126343,209.393997 
	C652.888428,208.202667 652.081055,207.142532 650.736755,207.666336 
	C648.654053,208.477859 648.077087,209.922134 650.218384,212.143372 
z"/>
<path fill="#D4AF37" opacity="1.000000" stroke="none" 
	d="
M436.316315,794.433044 
	C426.185913,800.231812 417.059753,796.180542 416.643921,786.086731 
	C416.407837,780.356018 419.063934,776.341614 424.536957,774.157349 
	C429.562836,772.151550 434.072266,773.027161 437.309692,776.637268 
	C440.826843,780.559570 441.532471,786.987854 438.851105,791.519531 
	C438.269348,792.502686 437.371002,793.298462 436.316315,794.433044 
z"/>
<path fill="#D4AF37" opacity="1.000000" stroke="none" 
	d="
M806.331055,656.591797 
	C809.831360,660.366638 807.707947,662.361389 804.354675,663.220093 
	C799.809753,664.383972 797.887207,665.915100 799.241455,671.356079 
	C801.105774,678.846619 790.963623,687.332458 783.320190,685.444641 
	C781.920166,685.098938 780.865906,684.412109 780.561279,682.931152 
	C780.214966,681.247253 780.963989,679.788818 782.329773,679.124817 
	C786.889526,676.908508 787.623657,673.843567 786.945496,668.753845 
	C785.754150,659.813293 795.569885,653.809021 806.331055,656.591797 
z"/>
<path fill="#D4AF37" opacity="1.000000" stroke="none" 
	d="
M801.928467,786.630127 
	C808.624878,785.500122 812.004272,787.327576 813.557190,792.615173 
	C814.816284,796.902344 812.995239,801.129822 809.049194,803.080811 
	C804.543945,805.308167 799.722290,804.158630 797.114319,800.235413 
	C793.896606,795.394958 795.801758,789.577576 801.928467,786.630127 
z"/>
<path fill="#D4AF37" opacity="1.000000" stroke="none" 
	d="
M571.698975,185.773285 
	C575.082031,186.660324 575.083862,188.779037 573.784668,190.839172 
	C570.428955,196.160416 566.915039,201.386444 563.322693,206.552063 
	C561.313110,209.441772 559.394653,208.873535 557.596985,206.092941 
	C556.252808,204.013748 554.657166,202.092743 553.118896,200.144363 
	C550.365662,196.656982 551.509705,193.007706 555.927307,192.900772 
	C560.186768,192.797684 563.110596,191.503525 565.480835,188.026871 
	C566.742981,186.175507 569.122559,185.905273 571.698975,185.773285 
z"/>
<path fill="#D4AF37" opacity="1.000000" stroke="none" 
	d="
M169.847595,380.604248 
	C168.256958,384.984955 165.368423,387.096588 161.094635,387.236603 
	C156.395813,387.390533 152.555695,384.293396 151.902695,379.884888 
	C151.289444,375.744568 153.646408,371.980164 157.714111,370.603302 
	C162.217377,369.079010 166.520721,370.780945 168.603088,375.005249 
	C169.405029,376.632050 170.182526,378.313263 169.847595,380.604248 
z"/>
<path fill="#D4AF37" opacity="1.000000" stroke="none" 
	d="
M496.999084,161.015930 
	C498.469055,161.129257 500.245270,161.012405 500.781708,162.736084 
	C501.330231,164.498596 499.758453,165.364548 498.538391,166.217194 
	C497.040344,167.264069 495.534424,168.305374 493.978455,169.262131 
	C492.110504,170.410721 490.924591,171.833969 491.600586,174.176468 
	C491.938385,175.347000 491.814117,176.450363 491.348724,177.574188 
	C489.993225,180.847519 485.205017,183.873398 482.665833,183.015121 
	C479.689789,182.009186 478.860535,177.866516 480.607605,173.409348 
	C483.437286,166.190002 487.932251,161.208527 496.709076,161.137085 
	C497.064056,160.983658 497.019318,161.002518 496.999084,161.015930 
z"/>
<path fill="#D4AF37" opacity="1.000000" stroke="none" 
	d="
M728.806213,154.994598 
	C729.263855,150.993225 731.007996,148.374039 734.558533,147.191330 
	C738.757446,145.792648 743.408936,147.679504 745.124634,151.439285 
	C746.905334,155.341415 745.475159,159.233429 741.408203,161.553146 
	C737.193115,163.957352 733.128235,163.219742 730.367249,159.532074 
	C729.451599,158.309036 728.903870,156.933594 728.806213,154.994598 
z"/>
<path fill="#D4AF37" opacity="1.000000" stroke="none" 
	d="
M885.431152,670.386108 
	C883.390564,664.692383 884.570312,660.397827 888.674072,658.640198 
	C892.216675,657.122925 895.991577,656.857483 898.737427,660.099365 
	C901.323547,663.152710 901.584900,666.801392 899.269897,670.230713 
	C896.943787,673.676392 893.587402,674.471436 889.654175,673.451660 
	C887.954102,673.010925 886.664856,672.086731 885.431152,670.386108 
z"/>
<path fill="#D4AF37" opacity="1.000000" stroke="none" 
	d="
M395.197083,833.673340 
	C393.115784,839.632141 389.460144,841.889343 384.733185,840.528625 
	C380.442749,839.293579 377.958832,835.108093 378.747101,830.442017 
	C379.404358,826.551208 383.570648,823.622620 388.014618,823.927734 
	C392.707306,824.249817 395.123047,827.373535 395.197083,833.673340 
M388.675690,830.033325 
	C387.710876,828.094055 386.262634,827.850586 384.624664,829.067566 
	C383.309021,830.045166 382.762177,831.454041 383.545532,833.015503 
	C384.165680,834.251709 385.312531,835.338989 386.670959,835.096741 
	C389.060181,834.670776 388.843475,832.563843 388.675690,830.033325 
z"/>
<path fill="#D4AF37" opacity="1.000000" stroke="none" 
	d="
M596.574463,815.528809 
	C598.853821,811.796875 602.136597,810.559814 605.893311,810.086731 
	C607.242859,809.916809 608.579895,809.666809 609.524841,810.901062 
	C610.479492,812.148010 609.841309,813.405151 609.331055,814.635376 
	C606.251038,822.060852 601.259949,824.742859 591.141724,824.261414 
	C590.933960,820.221436 594.559387,818.555603 596.574463,815.528809 
z"/>
<path fill="#D4AF37" opacity="1.000000" stroke="none" 
	d="
M370.676453,213.140350 
	C372.373169,214.790436 373.277557,216.377167 371.449860,218.041275 
	C369.454681,219.857864 368.112518,222.130020 366.590088,224.287567 
	C365.403961,225.968582 363.741333,226.564667 361.802948,225.976669 
	C359.812286,225.372787 357.978058,224.245758 357.964233,221.953354 
	C357.942535,218.356018 359.049164,215.073120 362.131195,212.854874 
	C364.858826,210.891693 367.662964,210.910477 370.676453,213.140350 
z"/>
<path fill="#D4AF37" opacity="1.000000" stroke="none" 
	d="
M456.218323,878.708618 
	C455.086365,879.312988 454.158051,879.640137 452.996216,880.069214 
	C449.088989,879.450439 443.647491,872.691284 444.112701,869.426575 
	C444.526306,866.524292 450.570923,864.613281 453.358398,866.503540 
	C456.410889,868.573669 458.034393,874.894836 456.218323,878.708618 
z"/>
<path fill="#D4AF37" opacity="1.000000" stroke="none" 
	d="
M639.601685,114.766525 
	C642.228149,115.590897 643.226440,117.556038 644.419983,119.319946 
	C645.839478,121.417809 647.207214,123.654839 645.651855,126.158440 
	C644.134949,128.600296 641.448486,128.433380 638.969788,128.483063 
	C635.914429,128.544312 635.393127,126.152214 634.567871,123.971512 
	C631.927490,116.994270 632.709656,115.383446 639.601685,114.766525 
z"/>
<path fill="#D4AF37" opacity="1.000000" stroke="none" 
	d="
M474.938477,201.427185 
	C470.522400,200.178696 468.837311,197.553955 470.664734,193.577347 
	C471.939209,190.803909 474.553894,189.572998 477.611877,189.829346 
	C480.468201,190.068802 480.953278,192.595886 480.914459,194.592010 
	C480.846466,198.091415 479.529755,201.091614 474.938477,201.427185 
z"/>
<path fill="#D4AF37" opacity="1.000000" stroke="none" 
	d="
M786.187256,704.216492 
	C789.619202,704.688416 791.736145,706.463379 790.649841,709.561890 
	C789.609863,712.528320 786.793091,714.176086 783.519653,713.918701 
	C780.733704,713.699707 779.473022,710.281189 781.120422,707.749146 
	C782.228760,706.045715 783.826599,704.854858 786.187256,704.216492 
z"/>
<path fill="#D4AF37" opacity="1.000000" stroke="none" 
	d="
M212.790070,274.232361 
	C214.300751,280.591705 219.012711,279.073120 223.225784,278.697723 
	C221.417877,282.892517 217.567902,284.512024 214.262558,282.669647 
	C211.492767,281.125793 210.221710,276.448456 211.833511,273.668884 
	C211.875473,273.596558 212.154343,273.609039 212.293976,273.660278 
	C212.439362,273.713654 212.549835,273.862122 212.790070,274.232361 
z"/>
<path fill="#D4AF37" opacity="1.000000" stroke="none" 
	d="
M890.864258,334.341125 
	C888.479431,335.177277 886.442444,335.690338 884.605774,333.173523 
	C887.689880,331.552032 891.189270,331.935364 894.312317,329.269867 
	C894.034546,332.152252 892.401184,333.018219 890.864258,334.341125 
z"/>
<path fill="#D4AF37" opacity="1.000000" stroke="none" 
	d="
M579.496521,437.420532 
	C566.581970,410.211273 553.829102,383.339294 541.078674,356.472626 
	C537.900635,357.527832 537.419189,359.857025 536.501221,361.681122 
	C516.361755,401.699432 496.265717,441.739594 476.192596,481.791260 
	C452.838928,528.388611 429.499481,574.993042 406.199890,621.617432 
	C403.521149,626.977783 401.171570,632.501831 398.600891,637.917419 
	C397.494568,640.248108 396.912903,642.714355 397.282776,645.195984 
	C397.984772,649.906555 395.891846,650.601990 391.646912,650.509644 
	C376.822266,650.186890 361.986420,650.417969 347.157227,650.240295 
	C341.146454,650.168274 335.184174,649.375793 329.877930,646.143250 
	C328.077393,645.046326 325.964966,644.125000 326.066986,641.183044 
	C328.353394,639.700500 330.471588,641.489136 332.639618,641.603394 
	C339.964722,641.989502 347.306946,642.368835 354.505463,640.504272 
	C360.710724,638.897095 365.612640,635.432251 369.222473,630.044800 
	C374.344055,622.401245 378.298370,614.135864 382.358887,605.927979 
	C398.753174,572.788391 414.996429,539.573792 431.488617,506.483185 
	C457.488892,454.315125 483.676697,402.240540 509.710175,350.088989 
	C515.511108,338.468292 521.168701,326.768616 526.544556,314.947174 
	C528.465820,310.722351 531.241699,308.543823 535.634155,307.385590 
	C548.718689,303.935303 548.600769,303.847260 554.290344,316.125763 
	C567.872864,345.437988 581.990417,374.498840 595.790100,403.705505 
	C615.636902,445.710632 635.357422,487.776703 655.495117,529.643127 
	C670.221375,560.258911 685.991150,590.390869 700.029480,621.313354 
	C710.198120,643.711914 732.528931,644.115906 749.024780,637.524231 
	C751.130859,636.682617 753.021240,634.955261 755.694824,636.448059 
	C756.422668,639.582336 754.325684,641.318909 752.242554,642.923157 
	C746.103760,647.650635 738.994629,650.190735 731.368958,650.230469 
	C696.708923,650.411194 662.047363,650.309753 627.386353,650.298340 
	C626.073792,650.297913 624.711121,650.430176 623.038818,649.230652 
	C625.619690,641.281494 621.134705,634.753052 617.840393,627.906677 
	C614.374146,620.703125 610.934143,613.486877 607.453125,606.290466 
	C606.344055,603.997559 605.799683,601.900879 608.505432,600.264404 
	C614.910217,596.390381 620.814331,591.806335 626.871948,586.904114 
	C630.421082,590.159912 631.714844,594.557129 633.780029,598.416199 
	C638.651367,607.519165 643.361755,616.710205 648.013550,625.927979 
	C652.273865,634.370117 658.693420,640.218384 667.665283,643.366638 
	C670.452026,644.344543 673.414612,644.981628 675.836365,647.164551 
	C678.423950,644.019043 678.219971,640.933411 676.804504,638.007080 
	C666.073181,615.821777 655.253906,593.679016 644.425476,571.540833 
	C643.936584,570.541321 643.094727,569.714417 642.461731,568.866638 
	C640.278687,569.200317 639.749268,571.028015 638.697144,572.211365 
	C625.608093,586.932434 610.004395,598.684875 591.313721,604.331909 
	C563.318115,612.790222 536.947876,608.167786 514.124268,588.754333 
	C508.138641,583.663025 504.789368,576.773621 502.209961,568.196594 
	C498.673798,574.824585 495.515137,580.403503 492.672058,586.138855 
	C484.609467,602.403259 476.705475,618.746338 468.669067,635.023865 
	C466.847412,638.713623 465.604401,642.328064 466.980347,646.512085 
	C467.786346,648.963013 466.576050,650.312988 463.944702,650.305603 
	C445.281860,650.253235 426.618927,650.223022 407.956268,650.137329 
	C406.470184,650.130554 404.975464,649.784668 403.903992,648.559204 
	C403.778809,646.715332 405.265564,646.346497 406.451843,645.956848 
	C410.084900,644.763489 413.709198,643.432312 417.442505,642.675842 
	C429.036346,640.326721 437.384674,634.042847 442.492096,623.295227 
	C450.067749,607.353577 457.823151,591.497375 465.489136,575.598572 
	C484.873627,535.396301 504.237793,495.184235 523.640747,454.990875 
	C528.201904,445.542389 532.787231,436.102936 537.548462,426.754578 
	C540.261475,421.427765 541.885681,421.316467 544.899963,426.546112 
	C553.386414,441.269653 560.682190,456.621490 568.299316,471.803040 
	C573.151306,481.473572 578.254272,491.019104 583.034790,500.724121 
	C584.691895,504.088318 586.716248,504.802856 590.201660,503.665405 
	C594.490112,502.265930 598.620544,500.564240 602.729126,498.734222 
	C606.029358,497.264191 606.609802,495.456879 605.006348,492.080475 
	C596.434509,474.031097 588.084717,455.876221 579.496521,437.420532 
M555.687500,581.707886 
	C565.871643,584.448242 576.044678,584.929199 586.149719,581.388611 
	C592.178528,579.276184 592.707397,578.073486 589.970947,572.267151 
	C584.858948,561.420349 579.634094,550.626709 574.465210,539.806702 
	C573.646057,538.091980 572.670898,536.535278 570.549316,536.376404 
	C558.338074,535.462097 546.148926,535.380859 534.720947,540.548035 
	C522.884399,545.899902 520.850159,555.462036 528.964600,565.553894 
	C535.722412,573.958557 544.734985,578.661011 555.687500,581.707886 
M530.574646,504.935242 
	C529.167786,509.000488 525.984985,512.448120 525.924561,517.500000 
	C535.625610,514.495239 545.018799,512.668640 554.739685,512.501282 
	C558.810059,512.431274 559.663940,510.373505 557.768738,506.315796 
	C554.533264,499.388458 551.279968,492.465088 547.815430,485.651306 
	C546.507690,483.079498 546.406677,479.793762 543.188721,477.506805 
	C538.302979,486.266693 534.601318,495.256531 530.574646,504.935242 
M612.672791,554.659424 
	C613.800964,557.070679 615.152466,557.950256 617.606140,555.938843 
	C620.440430,553.615356 623.344360,551.364075 625.578552,548.457397 
	C627.281677,546.241699 629.193604,543.782471 627.839111,540.751343 
	C624.184143,532.572327 620.380676,524.459045 616.570984,516.350342 
	C615.578735,514.238586 614.079102,513.854553 612.226990,515.523804 
	C607.646606,519.651855 604.435059,524.289490 604.162292,530.877075 
	C603.792175,539.816223 608.878906,546.588684 612.672791,554.659424 
z"/>
<path fill="#D4AF37" opacity="1.000000" stroke="none" 
	d="
M837.963745,554.971069 
	C838.094177,551.914490 838.357910,548.951782 839.928162,546.262268 
	C840.888489,544.617493 841.255920,542.697144 840.559814,540.965454 
	C839.053772,537.218689 841.154907,534.894348 843.563660,532.770813 
	C847.319519,529.459656 856.213135,529.145325 860.538025,531.994202 
	C865.088196,534.991455 866.655945,539.779053 864.914917,545.903748 
	C864.569519,547.118713 864.778259,548.127563 864.969238,549.279663 
	C866.024109,555.644592 863.063110,559.602112 856.695679,561.253540 
	C849.332642,563.163086 843.838135,559.984253 838.424805,555.252808 
	C838.120972,555.157349 838.017761,555.031738 837.963745,554.971069 
M856.718018,541.802368 
	C854.471558,539.193970 851.965759,538.564758 849.591003,541.422302 
	C847.292847,544.187744 846.385559,547.231873 849.219910,550.366516 
	C851.608887,553.008545 853.946411,552.714355 856.655396,550.756714 
	C860.397278,548.052612 859.528564,545.303406 856.718018,541.802368 
z"/>
<path fill="#D4AF37" opacity="1.000000" stroke="none" 
	d="
M825.592285,611.347778 
	C825.265869,610.377747 824.902649,609.676514 825.054443,609.114441 
	C826.056213,605.404602 828.412720,603.111938 832.343628,602.805298 
	C834.806763,602.613159 837.261292,603.294250 838.091125,605.739075 
	C839.187744,608.969910 836.745239,611.002136 834.477722,612.656616 
	C831.410461,614.894531 828.356750,614.947998 825.592285,611.347778 
z"/>
<path fill="#D4AF37" opacity="1.000000" stroke="none" 
	d="
M728.937317,729.136230 
	C729.645325,726.021362 730.997864,723.838745 733.765869,722.837402 
	C738.219055,721.226562 742.780212,723.190308 743.967346,727.199402 
	C744.978394,730.614258 742.378296,734.731384 738.416931,735.988403 
	C733.637878,737.504822 730.387634,735.299622 728.937317,729.136230 
z"/>
</svg>